<svg width="218" height="216" viewBox="0 0 218 216" fill="none" xmlns="http://www.w3.org/2000/svg">
<path d="M77.3832 81.7959C77.4023 82.7846 77.2274 83.7674 76.8684 84.6888C76.4144 85.6537 75.6519 86.4397 74.7013 86.9229C74.3718 87.1185 73.9652 87.345 73.4865 87.5972C72.9818 87.853 72.4996 88.1509 72.0451 88.4878C71.5936 88.8326 71.2008 89.248 70.8818 89.7181C70.56 90.1988 70.393 90.7664 70.403 91.3447C70.3969 91.7446 70.4796 92.1409 70.6451 92.505C70.8107 92.8691 71.055 93.1919 71.3605 93.4501C71.6551 93.6875 71.9948 93.8626 72.3591 93.9649C72.7374 94.0831 73.1313 94.1439 73.5276 94.145C73.9772 94.1506 74.4235 94.0666 74.8403 93.8979C75.2227 93.7408 75.5813 93.5312 75.9058 93.2751C76.2232 93.0248 76.51 92.738 76.7603 92.4206C76.9917 92.1327 77.2066 91.832 77.4038 91.5197L80.2607 93.4861C79.9853 94.1466 79.6026 94.7571 79.1283 95.2929C78.6622 95.8168 78.1188 96.2664 77.517 96.6262C76.9067 96.9895 76.2482 97.2651 75.5609 97.4447C74.8539 97.6327 74.1254 97.7279 73.3938 97.7278C72.5585 97.7265 71.7278 97.6033 70.9281 97.3623C70.1312 97.1293 69.389 96.739 68.7455 96.2144C68.0817 95.6626 67.5444 94.9744 67.1703 94.1965C66.7437 93.2767 66.5358 92.2707 66.5629 91.2572C66.5524 90.6289 66.6357 90.0026 66.81 89.3989C66.9663 88.8774 67.2043 88.3839 67.5152 87.937C67.8226 87.497 68.186 87.099 68.5962 86.753C69.0425 86.376 69.5156 86.0319 70.0118 85.7235C70.4511 85.4558 70.8886 85.2036 71.3244 84.9668C71.7486 84.7354 72.1501 84.4648 72.5238 84.1586C72.8764 83.8693 73.1759 83.521 73.4092 83.1291C73.6506 82.7029 73.7699 82.2185 73.7541 81.7289L77.3832 81.7959ZM77.3163 74.1465V78.6764H73.6718V74.1465H77.3163Z" fill="#EBEBEB"/>
<path d="M139.804 75.1041C139.784 74.1154 139.959 73.1326 140.318 72.2112C140.772 71.2463 141.535 70.4602 142.485 69.9771C142.815 69.7815 143.222 69.555 143.7 69.3027C144.205 69.047 144.687 68.7491 145.142 68.4122C145.593 68.0674 145.986 67.652 146.305 67.1819C146.627 66.7012 146.794 66.1336 146.784 65.5553C146.79 65.1553 146.707 64.7591 146.542 64.395C146.376 64.0309 146.132 63.7081 145.826 63.4499C145.534 63.2033 145.194 63.0193 144.828 62.9094C144.449 62.7911 144.055 62.7304 143.659 62.7292C143.209 62.7236 142.763 62.8076 142.346 62.9763C141.964 63.1335 141.605 63.3431 141.281 63.5992C140.963 63.8495 140.677 64.1363 140.426 64.4537C140.195 64.7415 139.98 65.0423 139.783 65.3545L136.905 63.3933C137.181 62.7328 137.564 62.1223 138.038 61.5864C138.505 61.064 139.048 60.6146 139.649 60.2532C140.259 59.8899 140.918 59.6143 141.605 59.4347C142.312 59.2467 143.041 59.1515 143.772 59.1516C144.608 59.1529 145.438 59.2761 146.238 59.5171C147.035 59.7501 147.777 60.1404 148.421 60.665C149.084 61.2168 149.622 61.905 149.996 62.6829C150.422 63.6026 150.63 64.6087 150.603 65.6222C150.614 66.2505 150.53 66.8768 150.356 67.4805C150.2 68.002 149.962 68.4955 149.651 68.9424C149.344 69.3823 148.98 69.7803 148.57 70.1264C148.124 70.5034 147.651 70.8475 147.154 71.1559C146.715 71.4236 146.278 71.6758 145.842 71.9126C145.418 72.144 145.016 72.4146 144.642 72.7208C144.29 73.0101 143.99 73.3584 143.757 73.7503C143.516 74.1765 143.396 74.6609 143.412 75.1504L139.804 75.1041ZM139.87 82.7535V78.2236H143.515V82.7535H139.87Z" fill="#EBEBEB"/>
<path d="M111.512 25.5223C111.524 26.2515 111.391 26.9758 111.121 27.6534C110.787 28.3647 110.225 28.9444 109.525 29.3006C109.285 29.4447 108.986 29.6163 108.629 29.8154C108.268 30.0077 107.924 30.2299 107.6 30.4794C107.263 30.7189 106.969 31.0129 106.73 31.3494C106.49 31.7027 106.366 32.1218 106.375 32.5488C106.37 32.8584 106.437 33.165 106.57 33.4445C106.696 33.6951 106.871 33.9176 107.085 34.0982C107.302 34.277 107.552 34.4116 107.821 34.4946C108.099 34.582 108.389 34.6272 108.681 34.6284C109.014 34.6318 109.344 34.5707 109.654 34.4482C109.934 34.3298 110.197 34.174 110.436 33.985C110.671 33.8009 110.883 33.5901 111.069 33.3569C111.238 33.1449 111.395 32.9231 111.538 32.6929L113.648 34.1445C113.445 34.6325 113.161 35.0831 112.809 35.4778C112.466 35.8612 112.067 36.1908 111.625 36.4558C111.176 36.7248 110.69 36.9293 110.184 37.0632C109.663 37.1994 109.127 37.2686 108.588 37.2691C107.973 37.2675 107.361 37.1773 106.771 37.0015C106.183 36.8278 105.635 36.5391 105.16 36.1521C104.669 35.7466 104.272 35.2389 103.996 34.6644C103.683 33.9861 103.529 33.2445 103.549 32.4973C103.542 32.0346 103.603 31.5734 103.729 31.128C103.844 30.745 104.017 30.382 104.244 30.0522C104.468 29.7265 104.736 29.4337 105.041 29.1822C105.365 28.9061 105.709 28.6549 106.071 28.4307C106.395 28.2351 106.72 28.0497 107.039 27.8747C107.352 27.7034 107.648 27.5035 107.924 27.2776C108.187 27.0758 108.413 26.8303 108.593 26.5518C108.77 26.2381 108.857 25.882 108.846 25.5223H111.512ZM111.461 19.8599V23.2007H108.773V19.8805L111.461 19.8599Z" fill="#EBEBEB"/>
<path d="M193.833 156.092L201.04 155.948L204.586 155.891C205.765 155.866 206.939 155.891 208.118 155.861L207.886 156.092L207.86 150.059L208.118 150.317L200.967 150.26C198.589 150.26 196.211 150.203 193.833 150.178L193.972 150.039C193.972 151.027 193.926 152.02 193.905 153.024L193.833 156.092ZM193.833 156.092L193.756 153.107C193.756 152.077 193.699 151.084 193.689 150.059V149.92H193.833C196.211 149.889 198.589 149.838 200.967 149.833L208.107 149.802H208.365V150.059L208.334 156.092V156.324H208.107C206.903 156.324 205.698 156.324 204.504 156.324L200.901 156.267L193.833 156.092Z" fill="#EBEBEB"/>
<path d="M201.796 163.695L209.003 163.556L212.55 163.494C213.728 163.494 214.902 163.494 216.081 163.494L215.849 163.721V157.693L216.107 157.945L208.967 157.914C206.589 157.914 204.21 157.857 201.832 157.832L201.971 157.693C201.971 158.676 201.925 159.669 201.904 160.678L201.796 163.695ZM201.796 163.695L201.719 160.709C201.719 159.705 201.662 158.686 201.652 157.667V157.528H201.796C204.174 157.502 206.553 157.446 208.931 157.446L216.071 157.415H216.328V157.677L216.302 163.705V163.937H216.076C214.871 163.937 213.667 163.937 212.472 163.906L208.869 163.849L201.796 163.695Z" fill="#EBEBEB"/>
<path d="M39.4503 84.0402L46.657 83.896L50.2037 83.8394C51.3825 83.8394 52.5561 83.8394 53.735 83.8137L53.5033 84.0402L53.4776 78.0071L53.735 78.2645L46.5952 78.2336C44.217 78.2336 41.8388 78.177 39.4606 78.1513L39.5996 78.0071C39.5996 78.9955 39.5532 79.989 39.5326 80.9928L39.4503 84.0402ZM39.4503 84.0402L39.3782 81.0545C39.3525 80.0507 39.3164 79.0315 39.3062 78.0071V77.8681H39.4503C41.8285 77.8424 44.2067 77.7858 46.5849 77.7858L53.7247 77.7498H53.982V78.0071V84.0402V84.2718H53.7555C52.551 84.2718 51.3465 84.2718 50.1522 84.2409L46.5489 84.1843L39.4503 84.0402Z" fill="#EBEBEB"/>
<path d="M47.5424 91.6486L54.7491 91.5044L58.2958 91.4478C59.4746 91.4221 60.6483 91.4478 61.8271 91.4169L61.5955 91.6486L61.5697 85.6155L61.8271 85.8729L54.6873 85.842C52.3091 85.842 49.9309 85.7854 47.5476 85.7545L47.6917 85.6155C47.6917 86.6039 47.6454 87.5974 47.6248 88.6012L47.5424 91.6486ZM47.5424 91.6486L47.4704 88.6629C47.4704 87.6334 47.4137 86.6399 47.4034 85.6155V85.4765H47.5424C49.9258 85.4508 52.304 85.3942 54.6822 85.389L61.8219 85.3582H62.0793V85.6155L62.0484 91.6486V91.8802H61.8219C60.6174 91.8802 59.4129 91.8802 58.2186 91.8493L54.6153 91.7927L47.5424 91.6486Z" fill="#EBEBEB"/>
<path d="M1.11591 163.695L8.3226 163.556L11.8693 163.494C13.0533 163.494 14.2269 163.494 15.4006 163.494L15.1741 163.721L15.1432 157.693L15.4006 157.945L8.26597 157.914C5.88262 157.914 3.50442 157.857 1.12621 157.832L1.2652 157.693C1.2652 158.676 1.22402 159.669 1.19828 160.678L1.11591 163.695ZM1.11591 163.695L1.04385 160.709C1.04385 159.705 0.987224 158.686 0.976929 157.667V157.528H1.11591C3.49412 157.502 5.87233 157.446 8.25568 157.446L15.3903 157.415H15.6528V157.677V163.705V163.937H15.4212C14.2218 163.937 13.0172 163.937 11.8178 163.906L8.2145 163.849L1.11591 163.695Z" fill="#EBEBEB"/>
<path d="M9.07929 20.9769L16.286 20.8328L19.8327 20.7762C21.0166 20.7762 22.1903 20.7762 23.364 20.7762L23.1375 21.0027L23.1066 14.9696L23.364 15.227L16.2294 15.1961C13.8511 15.1961 11.4678 15.1395 9.08959 15.1086L9.22858 14.9696C9.22858 15.958 9.18739 16.9515 9.16166 17.9553L9.07929 20.9769ZM9.07929 20.9769L9.00723 17.9913C9.00723 16.9618 8.9506 15.9683 8.94031 14.9439V14.8049H9.07929C11.4575 14.8049 13.8409 14.7226 16.2191 14.7226L23.3537 14.6865H23.6162V14.9439V20.9769V21.2086H23.3846C22.1852 21.2086 20.9806 21.2086 19.7812 21.1777L16.1779 21.1211L9.07929 20.9769Z" fill="#EBEBEB"/>
<path d="M1.11591 28.5853L8.3226 28.4412L11.8693 28.3846C13.0533 28.3846 14.2269 28.3846 15.4006 28.3537L15.1741 28.5853L15.1432 22.5523L15.4006 22.8097L8.26597 22.7788C5.88262 22.7788 3.50442 22.717 1.12621 22.6913L1.2652 22.5523C1.2652 23.5406 1.22402 24.5341 1.19828 25.5379L1.11591 28.5853ZM1.11591 28.5853L1.04385 25.5997C1.04385 24.5702 0.987224 23.5767 0.976929 22.5523V22.4133H1.11591C3.49412 22.3824 5.87233 22.331 8.25568 22.3258L15.3903 22.2949H15.6528V22.5523V28.5853V28.817H15.4212C14.2218 28.817 13.0172 28.817 11.8178 28.817L8.2145 28.7603L1.11591 28.5853Z" fill="#EBEBEB"/>
<path d="M201.796 20.9769L209.003 20.8328L212.55 20.7762C213.728 20.7762 214.902 20.7762 216.081 20.7762L215.849 21.0027V14.9696L216.107 15.227L208.967 15.1961C206.589 15.1961 204.21 15.1395 201.832 15.1086L201.971 14.9696C201.971 15.958 201.925 16.9515 201.904 17.9553L201.796 20.9769ZM201.796 20.9769L201.719 17.9913C201.719 16.9618 201.662 15.9683 201.652 14.9439V14.8049H201.796C204.174 14.8049 206.553 14.7226 208.931 14.7226L216.071 14.6865H216.328V14.9439L216.302 20.9769V21.2086H216.076C214.871 21.2086 213.667 21.2086 212.472 21.1777L208.869 21.1211L201.796 20.9769Z" fill="#EBEBEB"/>
<path d="M55.6395 84.0402L62.8462 83.896L66.3826 83.8548C67.5614 83.8548 68.735 83.8548 69.9139 83.8291L69.6822 84.0556V78.0226L69.9396 78.28L62.7792 78.2336C60.401 78.2336 58.0177 78.177 55.6395 78.1513L55.7836 78.0071C55.7836 78.9955 55.7373 79.989 55.7115 80.9928L55.6395 84.0402ZM55.6395 84.0402L55.5674 81.0545C55.5674 80.0507 55.5108 79.0315 55.5005 78.0071V77.8681H55.6395C58.0177 77.8424 60.401 77.7858 62.7792 77.7858L69.919 77.7498H70.1764V78.0071L70.1506 84.0402V84.2718H69.9241C68.7196 84.2718 67.5151 84.2718 66.3208 84.2409L62.7175 84.1843L55.6395 84.0402Z" fill="#EBEBEB"/>
<path d="M49.0713 200.501H8.0498V209.324H49.0713V200.501Z" fill="#C7C7C7"/>
<path d="M23.1683 200.501H19.3179V209.324H23.1683V200.501Z" fill="#DBDBDB"/>
<path d="M16.3838 200.501H14.9579V209.324H16.3838V200.501Z" fill="#DBDBDB"/>
<path d="M44.4796 200.501H40.6292V209.324H44.4796V200.501Z" fill="#DBDBDB"/>
<path d="M53.2819 194.334H6.42822V200.501H53.2819V194.334Z" fill="#DBDBDB"/>
<path d="M25.984 195.595H10.2683V199.296H25.984V195.595Z" fill="#EBEBEB"/>
<path d="M44.6187 186.159H7.58667V194.339H44.6187V186.159Z" fill="#A6A6A6"/>
<path d="M41.3241 186.159H38.4312V194.339H41.3241V186.159Z" fill="#C7C7C7"/>
<path d="M36.5315 186.159H35.4093V194.339H36.5315V186.159Z" fill="#C7C7C7"/>
<path d="M73.2352 203.304L49.0514 175.805L42.2327 181.802L66.4165 209.301L73.2352 203.304Z" fill="#A6A6A6"/>
<path d="M70.6645 200.384L68.4106 197.821L61.592 203.818L63.8458 206.38L70.6645 200.384Z" fill="#C7C7C7"/>
<path d="M56.2934 184.038L54.0396 181.476L47.2209 187.472L49.4747 190.035L56.2934 184.038Z" fill="#C7C7C7"/>
<path d="M58.6974 186.774L57.8237 185.781L51.0051 191.777L51.8787 192.771L58.6974 186.774Z" fill="#C7C7C7"/>
<path d="M187.574 187.168C187.574 187.168 192.376 169.924 196.216 164.066C200.057 158.208 207.207 151.773 207.207 151.773C207.207 151.773 207.037 178.366 187.574 187.168Z" fill="#FFC727"/>
<path d="M187.919 186.875C189.534 184.174 190.996 181.385 192.299 178.52C192.847 175.438 193.644 172.404 194.683 169.45C194.683 169.394 194.78 169.45 194.77 169.481C194.132 172.204 193.391 174.907 192.711 177.62C194.652 173.424 196.495 169.172 198.801 165.204C199.336 163.287 200.084 161.436 201.03 159.685C201.055 159.639 201.138 159.685 201.117 159.716C200.533 161.057 200.031 162.433 199.614 163.834C200.704 162.065 201.925 160.38 203.269 158.795C203.351 158.697 203.521 158.795 203.439 158.908C200.35 162.851 198.214 167.335 196.186 171.88C198.367 169.511 200.382 166.993 202.214 164.344C202.214 164.313 202.275 164.344 202.255 164.37C200.348 167.34 198.188 170.141 195.8 172.74C194.322 176.065 192.865 179.432 191.105 182.572C194.626 179.596 197.339 175.741 200.021 172.024C200.027 172.016 200.034 172.009 200.043 172.003C200.052 171.998 200.062 171.994 200.072 171.992C200.083 171.991 200.093 171.991 200.103 171.993C200.113 171.996 200.123 172 200.131 172.006C200.14 172.012 200.147 172.02 200.152 172.029C200.158 172.038 200.162 172.047 200.163 172.058C200.165 172.068 200.165 172.079 200.162 172.089C200.16 172.099 200.155 172.108 200.149 172.117C197.467 176.194 194.693 180.034 190.832 183.056C190.049 184.445 189.19 185.791 188.258 187.086C188.225 187.118 188.183 187.139 188.137 187.144C188.091 187.149 188.045 187.138 188.006 187.114C187.967 187.09 187.937 187.053 187.921 187.01C187.905 186.966 187.904 186.919 187.919 186.875Z" fill="#263238"/>
<path d="M186.081 188.723C186.081 188.723 194.719 172.822 192.212 157.405C189.705 141.987 187.018 136.495 187.018 136.495C187.018 136.495 173.454 160.473 186.081 188.723Z" fill="#FFC727"/>
<path d="M182.539 163.721C183.268 168.1 184.382 172.407 185.87 176.59C185.895 170.927 186.004 165.265 186.153 159.603C185.182 156.17 184.636 152.631 184.526 149.065C184.526 148.963 184.675 148.968 184.686 149.065C184.959 152.121 185.465 155.152 186.199 158.13C186.33 153.467 186.481 148.801 186.652 144.134C186.652 144.118 186.659 144.102 186.67 144.09C186.682 144.079 186.698 144.072 186.714 144.072C186.73 144.072 186.746 144.079 186.758 144.09C186.769 144.102 186.776 144.118 186.776 144.134C186.776 151.423 186.776 158.717 186.729 166.011C187.779 163.192 188.61 160.295 189.216 157.348C189.216 157.317 189.267 157.348 189.267 157.348C189.01 160.756 187.97 164.04 186.693 167.206C186.657 171.869 186.606 176.528 186.503 181.187C187.965 176.235 189.525 171.432 189.947 166.197C189.947 166.182 189.953 166.167 189.963 166.157C189.974 166.146 189.988 166.14 190.003 166.14C190.018 166.14 190.033 166.146 190.043 166.157C190.054 166.167 190.06 166.182 190.06 166.197C189.942 171.967 188.454 177.83 186.549 183.261C186.532 183.314 186.499 183.36 186.457 183.395C186.41 185.099 186.364 186.803 186.307 188.507C186.307 188.557 186.287 188.606 186.252 188.641C186.216 188.677 186.167 188.697 186.117 188.697C186.066 188.697 186.018 188.677 185.982 188.641C185.946 188.606 185.926 188.557 185.926 188.507C185.861 185.02 185.832 181.535 185.839 178.052C183.96 173.488 182.812 168.657 182.436 163.736C182.457 163.69 182.529 163.68 182.539 163.721Z" fill="#263238"/>
<path d="M183.131 161.265C183.432 162.649 183.634 164.053 183.733 165.466C183.733 165.477 183.729 165.487 183.721 165.495C183.714 165.503 183.703 165.507 183.692 165.507C183.681 165.507 183.671 165.503 183.663 165.495C183.655 165.487 183.651 165.477 183.651 165.466C183.317 164.087 183.079 162.687 182.941 161.276C182.93 161.178 183.111 161.157 183.131 161.265Z" fill="#263238"/>
<path d="M188.181 149.637C188.181 149.591 188.263 149.606 188.263 149.637C188.248 150.618 188.103 151.592 187.831 152.535C187.826 152.551 187.815 152.564 187.801 152.572C187.786 152.579 187.77 152.581 187.754 152.576C187.738 152.571 187.725 152.561 187.717 152.546C187.71 152.532 187.708 152.515 187.713 152.499C187.898 151.557 188.016 150.6 188.181 149.637Z" fill="#263238"/>
<path d="M182.936 189.937C182.936 189.937 183.286 173.341 178.524 165.09C173.763 156.838 165.866 152.633 165.866 152.633C165.866 152.633 169.047 181.897 182.936 189.937Z" fill="#FFC727"/>
<path d="M174.257 175.745C176.172 178.645 178.327 181.378 180.702 183.915C179.751 180.517 178.651 177.18 177.402 173.903C174.736 171.56 172.085 169.136 170.448 165.934C170.422 165.883 170.494 165.836 170.525 165.888C172.285 168.724 174.643 170.994 177.119 173.177C175.211 168.24 172.998 163.426 170.494 158.763C170.48 158.739 170.475 158.711 170.482 158.684C170.489 158.657 170.506 158.634 170.53 158.619C170.554 158.605 170.582 158.601 170.609 158.607C170.637 158.614 170.66 158.631 170.674 158.655C172.197 161.098 173.583 163.622 174.828 166.217C174.386 164.441 174.025 162.614 173.567 160.864C173.57 160.856 173.575 160.849 173.582 160.844C173.589 160.839 173.597 160.837 173.606 160.837C173.614 160.837 173.622 160.839 173.629 160.844C173.636 160.849 173.641 160.856 173.644 160.864C174.578 163.123 175.235 165.488 175.6 167.906C177.268 171.587 178.668 175.384 179.791 179.266C179.672 176.775 179.513 174.299 179.276 171.818C179.276 171.771 179.353 171.761 179.358 171.818C179.89 174.572 180.133 177.373 180.084 180.177C180.77 182.652 181.345 185.152 181.808 187.678C181.808 187.745 181.721 187.775 181.705 187.703C181.448 186.648 181.165 185.598 180.877 184.553C180.86 184.557 180.842 184.557 180.825 184.553C178.251 181.979 175.847 179.076 174.252 175.802L174.257 175.745Z" fill="#263238"/>
<path d="M168.738 162.238C169.253 162.81 169.768 163.412 170.283 164.004C170.782 164.5 171.24 165.035 171.652 165.605C171.656 165.61 171.658 165.616 171.657 165.622C171.657 165.628 171.654 165.634 171.65 165.639C171.645 165.643 171.639 165.646 171.633 165.646C171.627 165.647 171.621 165.645 171.616 165.641C171.021 165.201 170.489 164.681 170.036 164.097C169.533 163.54 169.079 162.943 168.677 162.311C168.635 162.249 168.702 162.197 168.738 162.238Z" fill="#263238"/>
<path d="M197.081 187.915L196.479 193.237L194.672 209.324H178.895L177.088 193.237L176.486 187.915H197.076H197.081Z" fill="#455A64"/>
<path d="M197.081 187.915L196.479 193.237H177.088L176.486 187.915H197.076H197.081Z" fill="#37474F"/>
<path d="M175.086 190.087H198.482V184.059H175.086V190.087Z" fill="#455A64"/>
<path d="M5.11584 209.457L30.9878 209.334L56.8547 209.287L108.593 209.2L160.332 209.287L186.199 209.329L212.071 209.457L186.199 209.581L160.332 209.627L108.593 209.715L56.8547 209.627L30.9878 209.581L5.11584 209.457Z" fill="#263238"/>
<path d="M76.5389 33.8977V60.5984H29.1189V66.8734L5.98547 45.2019L27.0444 25.574L29.1189 27.6227V31.8541H74.4592L76.5389 33.8977Z" fill="#FFC727"/>
<g opacity="0.1">
<path opacity="0.1" d="M76.5389 33.8977V60.5984H29.1189V66.8734L5.98547 45.2019L27.0444 25.574L29.1189 27.6227V31.8541H74.4592L76.5389 33.8977Z" fill="black"/>
</g>
<path d="M74.4591 31.8545H27.0443V58.5552H74.4591V31.8545Z" fill="#FFC727"/>
<path d="M27.0444 64.8246V25.574L5.98547 45.2019L27.0444 64.8246Z" fill="#FFC727"/>
<path d="M190.147 66.8736L188.067 64.8249V60.5987H142.727L140.653 58.5499V31.8543H188.067V25.5742L211.201 47.2509L190.147 66.8736Z" fill="#37474F"/>
<path d="M140.653 58.55L188.068 58.55V31.8493L140.653 31.8493V58.55Z" fill="#677A6B"/>
<path d="M188.068 25.5742V64.8249L209.126 45.2021L188.068 25.5742Z" fill="#677A6B"/>
<path d="M124.35 168.276V168.348C124.35 168.348 124.35 168.379 124.35 168.4C124.35 168.42 124.35 168.482 124.325 168.539V168.631C124.308 168.697 124.296 168.764 124.288 168.832C124.288 168.878 124.288 168.925 124.263 168.976C124.237 169.028 124.227 169.192 124.201 169.316C124.175 169.44 124.124 169.733 124.083 169.98L123.851 171.236C123.825 171.37 123.799 171.514 123.774 171.663C123.748 171.813 123.702 172.065 123.66 172.276C123.619 172.487 123.578 172.749 123.532 173.002C123.501 173.177 123.465 173.357 123.434 173.542C123.336 174.093 123.233 174.68 123.115 175.308C123.112 175.323 123.112 175.339 123.115 175.354C122.991 176.054 122.857 176.806 122.713 177.593C122.677 177.799 122.636 178.005 122.595 178.211C122.554 178.417 122.513 178.643 122.477 178.86C122.477 178.994 122.43 179.132 122.399 179.271C122.204 180.366 121.993 181.526 121.766 182.751C121.689 183.163 121.617 183.58 121.54 184.002C121.39 184.826 121.236 185.67 121.076 186.54C121.035 186.741 120.999 186.941 120.968 187.147C120.735 188.407 120.496 189.718 120.253 191.08C120.222 191.219 120.201 191.358 120.176 191.497C120.057 192.135 119.939 192.779 119.826 193.438C119.81 193.488 119.8 193.54 119.795 193.592L119.625 194.529C119.398 195.785 119.165 197.07 118.925 198.385C118.863 198.709 118.801 199.038 118.744 199.373C118.626 200.037 118.503 200.706 118.379 201.381C118.225 202.22 118.07 203.064 117.916 203.923C117.761 204.783 117.607 205.643 117.447 206.497C117.365 206.935 117.288 207.372 117.205 207.81C117.113 208.325 117.015 208.839 116.922 209.39H72.4313C77.9186 186.591 82.5464 168.209 82.5464 168.209L124.35 168.276Z" fill="#455A64"/>
<path d="M117.628 173.424C115.4 185.435 113.149 197.446 110.874 209.457H110.256C112.619 197.417 115.054 185.397 117.463 173.372C117.499 173.259 117.643 173.305 117.628 173.424Z" fill="#37474F"/>
<path d="M124.345 168.276C124.345 168.276 124.345 168.302 124.345 168.348C124.345 168.395 124.345 168.379 124.345 168.4C124.345 168.42 124.345 168.482 124.319 168.539V168.632C124.303 168.698 124.291 168.765 124.283 168.832C124.283 168.879 124.283 168.925 124.258 168.976C124.232 169.028 124.216 169.193 124.196 169.316C124.175 169.44 124.119 169.733 124.077 169.98C124.005 170.346 123.933 170.763 123.846 171.236C123.82 171.37 123.794 171.514 123.769 171.664C123.743 171.813 123.697 172.065 123.655 172.276C123.614 172.487 123.573 172.75 123.527 173.002C123.496 173.177 123.46 173.357 123.429 173.542C123.326 174.093 123.223 174.68 123.11 175.308C123.107 175.323 123.107 175.339 123.11 175.354C122.981 176.054 122.847 176.796 122.703 177.583C122.662 177.789 122.626 178 122.59 178.211C122.554 178.422 122.507 178.644 122.471 178.86C122.44 178.994 122.42 179.133 122.394 179.272C122.193 180.363 121.982 181.526 121.761 182.751C121.684 183.163 121.612 183.58 121.535 184.002C121.38 184.826 121.226 185.67 121.071 186.54C121.03 186.741 120.994 186.942 120.963 187.148C120.726 188.414 120.488 189.725 120.248 191.08C120.217 191.219 120.196 191.358 120.17 191.497C120.052 192.136 119.934 192.779 119.82 193.438C119.805 193.488 119.795 193.54 119.789 193.592L119.62 194.529C119.386 195.785 119.153 197.07 118.92 198.385C118.858 198.709 118.796 199.039 118.739 199.373C118.616 200.037 118.497 200.706 118.374 201.381C118.219 202.22 118.065 203.064 117.911 203.924C117.756 204.783 117.597 205.643 117.442 206.498C117.36 206.935 117.283 207.373 117.2 207.81C117.108 208.325 117.01 208.84 116.912 209.39H94.5867L92.8004 191.106L92.7387 190.458L92.6666 189.757L92.3166 186.18L92.0128 183.091L90.5767 168.276H124.345Z" fill="#263238"/>
<path d="M149.625 209.457H101.644C101.562 205.04 101.474 200.768 101.366 196.737C101.366 196.639 101.366 196.541 101.366 196.444C101.366 196.444 95.7656 193.129 92.7491 190.529C92.2363 190.107 91.7641 189.638 91.3386 189.129C89.4083 186.668 87.4728 177.207 83.4679 168.307H142.151C151.684 186.807 151.015 201.674 149.625 209.457Z" fill="#455A64"/>
<path d="M89.9383 188.476C92.7952 189.644 95.3639 191.441 97.8965 193.176C100.527 194.972 102.941 197.052 105.474 198.982C105.572 199.059 105.474 199.219 105.371 199.147C102.704 197.443 99.9093 195.945 97.2685 194.19C94.6947 192.486 92.0385 190.828 89.8096 188.682C89.7221 188.599 89.8199 188.424 89.9383 188.476Z" fill="#263238"/>
<path d="M89.5779 171.967C89.9177 173.794 90.3604 175.606 90.7568 177.423C91.1274 179.127 91.4002 180.862 91.8481 182.571C92.2158 184.202 93.0449 185.692 94.2365 186.864C94.9057 187.487 95.6419 188.038 96.3574 188.604C96.7383 188.913 97.1553 189.206 97.5568 189.52C97.5001 189.278 97.459 189.006 97.4178 188.784C97.2942 188.089 97.1758 187.399 97.0626 186.725C96.8052 185.181 96.5478 183.637 96.3213 182.092C95.8581 179.06 95.4308 175.997 94.7771 172.996C94.7702 172.971 94.7737 172.944 94.7867 172.922C94.7998 172.899 94.8213 172.882 94.8465 172.875C94.8718 172.869 94.8987 172.872 94.9214 172.885C94.9441 172.898 94.9607 172.92 94.9675 172.945C95.7242 175.92 96.5581 178.865 97.2119 181.866C97.5362 183.333 98.6892 190.617 98.7562 191.132C98.8231 191.646 98.8488 192.197 98.8694 192.727C98.9416 193.269 98.9416 193.818 98.8694 194.359C98.8593 194.383 98.8421 194.404 98.8201 194.419C98.7981 194.434 98.7723 194.441 98.7459 194.441C98.7194 194.441 98.6936 194.434 98.6716 194.419C98.6497 194.404 98.6325 194.383 98.6223 194.359C98.403 193.855 98.2474 193.326 98.159 192.784C98.0252 192.269 97.9068 191.754 97.8142 191.209C97.7833 191.023 97.7575 190.828 97.7318 190.632C97.0163 190.195 96.3471 189.603 95.6727 189.139C94.9984 188.676 94.2211 188.11 93.5365 187.533C92.2758 186.468 91.3662 185.047 90.9266 183.456C90.4825 181.737 90.193 179.982 90.0618 178.211C89.8302 176.152 89.6655 174.093 89.3772 172.034C89.372 171.879 89.5471 171.843 89.5779 171.967Z" fill="#263238"/>
<path d="M138.928 186.808C138.161 186.407 135.196 187.117 129.797 186.19C128.738 186.055 127.732 185.647 126.878 185.006C125.473 183.859 124.407 182.011 123.558 180.43C122.538 178.652 121.756 176.749 121.231 174.768C121.205 174.649 121.03 174.706 121.051 174.819C121.252 175.936 121.365 177.053 121.658 178.16C121.95 179.199 122.323 180.213 122.775 181.192C123.589 183.025 124.546 184.991 126.188 186.232C127.913 187.529 130.306 187.776 132.406 187.92C133.616 188.002 138.352 187.874 138.99 187.199C139.014 187.171 139.032 187.137 139.042 187.101C139.052 187.065 139.054 187.027 139.048 186.99C139.043 186.953 139.029 186.917 139.008 186.886C138.987 186.855 138.96 186.828 138.928 186.808Z" fill="#263238"/>
<path d="M136.849 170.958C137.394 172.502 137.925 174.047 138.362 175.632C138.8 177.218 139.248 178.777 139.649 180.358C140.431 183.523 141.043 186.727 141.482 189.958C141.931 193.18 142.155 196.429 142.151 199.682L142.11 202.127C142.079 202.94 141.991 203.748 141.935 204.567L141.857 205.792C141.811 206.194 141.744 206.6 141.688 207.002C141.569 207.81 141.461 208.623 141.358 209.442C142.268 206.27 142.803 203.003 142.954 199.708C143.107 196.404 142.955 193.094 142.501 189.819C142.058 186.549 141.37 183.318 140.442 180.152C139.522 176.986 138.319 173.909 136.849 170.958Z" fill="#263238"/>
<path d="M85.846 96.4925C65.7702 113.789 51.3981 128.763 51.4032 135.738C51.4032 151.366 59.5725 154.944 61.0499 154.486C76.6781 149.621 87.2719 120.403 94.2366 102.737C101.15 85.214 91.6062 91.5405 85.846 96.4925Z" fill="#916B5C"/>
<path d="M57.3177 121.134L81.733 134.976C81.733 134.976 92.3731 113.237 96.1463 100.173C99.9195 87.1081 94.6329 87.3964 82.85 97.3982C71.0671 107.4 57.3177 121.134 57.3177 121.134Z" fill="#F7B801"/>
<path d="M84.8269 99.0714C84.538 98.4318 84.1714 97.8301 83.7356 97.28L83.612 97.1411C83.612 97.2131 83.612 97.2852 83.6481 97.3521C83.7774 98.0318 83.9918 98.6924 84.2864 99.3185C84.5964 100.017 85.0056 100.667 85.5012 101.249C85.3792 100.495 85.1522 99.7622 84.8269 99.0714ZM73.3013 107.534C72.603 107.842 71.9528 108.25 71.371 108.744C72.8844 108.485 74.304 107.836 75.4891 106.86C74.7311 106.978 73.9942 107.205 73.3013 107.534ZM96.5635 95.6019C96.7739 95.5766 96.9821 95.5353 97.1863 95.4784C97.1863 95.3445 97.2224 95.2158 97.2378 95.0872C97.0011 95.2501 96.7758 95.4289 96.5635 95.6225V95.6019ZM76.2509 123.286C75.9739 123.999 75.8006 124.748 75.7361 125.51C76.1875 124.893 76.5449 124.213 76.7966 123.492C77.0705 122.78 77.2438 122.033 77.3113 121.273C76.8634 121.89 76.5063 122.568 76.2509 123.286ZM93.0373 105.506C92.7603 106.219 92.587 106.968 92.5226 107.73C92.9739 107.113 93.3313 106.433 93.583 105.712C93.8569 105 94.0302 104.253 94.0977 103.493C93.6498 104.11 93.2927 104.788 93.0373 105.506ZM64.2672 120.918C63.5544 120.641 62.8055 120.468 62.0435 120.403C63.2999 121.276 64.7614 121.808 66.2851 121.947C65.6631 121.513 64.9841 121.167 64.2672 120.918ZM84.4923 113.418C83.7794 113.141 83.0305 112.968 82.2685 112.903C83.525 113.776 84.9865 114.308 86.5101 114.447C85.8893 114.006 85.2102 113.652 84.4923 113.397V113.418ZM85.599 116.053C85.599 116.053 85.599 116.089 85.599 116.105H85.6917C85.6624 116.079 85.6314 116.055 85.599 116.033V116.053Z" fill="white"/>
<path d="M62.4604 117.443C71.8549 124.048 80.9919 128.392 82.8193 129.489C82.9017 129.54 82.9789 129.396 82.8862 129.345C81.0382 128.367 71.0467 121.886 62.5376 117.289C62.4398 117.238 62.3729 117.382 62.4604 117.443Z" fill="#263238"/>
<path opacity="0.1" d="M75.0669 131.213L81.7331 134.991C81.7331 134.991 92.3732 113.253 96.1464 100.188C97.5312 95.3752 97.6907 92.3742 96.7487 91.0049L75.0669 131.213Z" fill="black"/>
<path d="M78.1296 178.139H147.571C147.571 178.139 136.962 111.879 111.368 89.2187C108.207 86.4184 101.073 87.0567 96.4397 89.368C94.777 90.1968 88.8109 98.5411 87.1071 106.438C85.4032 114.334 77.9443 177.902 78.1296 178.139Z" fill="#F7B801"/>
<path d="M117.164 107.822C118.418 108.704 119.88 109.245 121.406 109.392C120.152 108.51 118.69 107.969 117.164 107.822ZM85.5937 116.084H85.6863C85.6584 116.062 85.6292 116.041 85.5988 116.022C85.5988 116.022 85.5937 116.069 85.5937 116.084ZM101.423 125.973C102.677 126.855 104.138 127.396 105.664 127.543C105.044 127.097 104.365 126.741 103.646 126.482C102.933 126.207 102.184 126.035 101.423 125.973ZM110.858 154.748C111.477 155.197 112.156 155.556 112.876 155.814C113.589 156.091 114.338 156.264 115.1 156.328C113.848 155.442 112.385 154.899 110.858 154.753V154.748ZM126.749 134.672C128.003 135.554 129.465 136.095 130.991 136.242C130.37 135.797 129.691 135.44 128.973 135.182C128.259 134.912 127.51 134.745 126.749 134.688V134.672ZM141.023 174.7C142.275 175.587 143.738 176.13 145.265 176.275C144.01 175.395 142.549 174.852 141.023 174.7ZM110.349 172.193C111.601 173.08 113.063 173.623 114.59 173.768C113.971 173.321 113.292 172.964 112.572 172.708C111.852 172.426 111.094 172.253 110.323 172.193H110.349ZM78.3509 175.905C78.7659 176.13 79.1959 176.326 79.6378 176.492C80.3509 176.768 81.0997 176.941 81.8616 177.006C81.242 176.56 80.5627 176.203 79.8437 175.946C79.3735 175.77 78.8898 175.632 78.3973 175.534C78.3509 175.658 78.3406 175.786 78.3252 175.905H78.3509ZM90.5302 153.966C91.7841 154.848 93.2458 155.389 94.7719 155.536C94.1528 155.088 93.4734 154.731 92.754 154.475C92.0335 154.195 91.2754 154.023 90.5045 153.966H90.5302ZM111.723 99.8125C112.605 98.5586 113.146 97.0969 113.293 95.5708C112.846 96.1899 112.489 96.8693 112.233 97.5887C111.955 98.3011 111.783 99.0503 111.723 99.8125ZM127.006 177.542C127.888 176.288 128.43 174.826 128.576 173.3C128.128 173.918 127.771 174.598 127.516 175.318C127.238 176.03 127.067 176.78 127.006 177.542ZM130.054 158.192C130.505 157.574 130.863 156.894 131.119 156.174C131.396 155.463 131.569 154.716 131.634 153.955C130.747 155.205 130.204 156.666 130.059 158.192H130.054ZM103.631 146.692C104.504 145.435 105.036 143.974 105.175 142.45C104.729 143.07 104.372 143.749 104.115 144.468C103.847 145.186 103.684 145.938 103.631 146.702V146.692ZM112.979 121.886C113.866 120.633 114.409 119.171 114.554 117.644C114.105 118.263 113.747 118.942 113.489 119.662C113.212 120.378 113.041 121.131 112.979 121.896V121.886ZM99.6879 178.139H100.306C100.514 177.535 100.644 176.907 100.692 176.27C100.276 176.846 99.938 177.474 99.6879 178.139ZM80.5026 164.081C80.9535 163.463 81.3124 162.783 81.5682 162.063C81.8422 161.351 82.0155 160.604 82.083 159.844C81.1975 161.095 80.6545 162.555 80.5078 164.081H80.5026ZM92.5275 107.73C92.9789 107.113 93.3362 106.433 93.5879 105.712C93.8619 105 94.0351 104.253 94.1027 103.493C93.2157 104.743 92.6725 106.204 92.5275 107.73ZM96.5632 95.6223C98.0767 95.364 99.4963 94.7145 100.681 93.7383C99.9269 93.8572 99.1935 94.0843 98.5039 94.4126C97.803 94.7219 97.1496 95.1292 96.5632 95.6223ZM119.285 147.644C120.039 147.523 120.772 147.296 121.462 146.97C122.162 146.66 122.814 146.251 123.398 145.755C121.886 146.02 120.467 146.671 119.28 147.644H119.285ZM137.25 165.738C138.764 165.48 140.183 164.83 141.368 163.854C139.855 164.112 138.435 164.762 137.25 165.738ZM90.2934 170.247C91.8069 169.989 93.2265 169.34 94.4115 168.363C93.6571 168.482 92.9237 168.71 92.2341 169.038C91.5332 169.347 90.8798 169.754 90.2934 170.247ZM91.7863 141.555C92.5404 141.432 93.2734 141.203 93.9637 140.875C94.6631 140.569 95.3135 140.161 95.8941 139.665C94.3793 139.923 92.959 140.574 91.776 141.555H91.7863ZM96.5632 117.191C98.0767 116.933 99.4963 116.283 100.681 115.307C99.1679 115.565 97.7483 116.215 96.5632 117.191ZM125.905 120.794C126.165 122.307 126.814 123.726 127.789 124.912C127.528 123.4 126.879 121.98 125.905 120.794ZM102.838 160.786C102.96 161.54 103.187 162.273 103.513 162.964C103.823 163.662 104.232 164.312 104.727 164.894C104.464 163.381 103.813 161.962 102.838 160.776V160.786ZM88.7183 125.489C88.8372 126.243 89.0643 126.977 89.3926 127.666C89.7019 128.366 90.1092 129.017 90.6023 129.602C90.3446 128.088 89.6951 126.668 88.7183 125.484V125.489ZM120.284 162.84C120.544 164.353 121.193 165.772 122.168 166.958C122.049 166.204 121.822 165.47 121.493 164.781C121.184 164.08 120.776 163.427 120.284 162.84ZM138.362 143.511C138.481 144.265 138.708 144.999 139.036 145.688C139.346 146.387 139.753 147.039 140.246 147.624C140.127 146.868 139.9 146.132 139.572 145.441C139.26 144.744 138.853 144.095 138.362 143.511ZM113.767 132.701C113.888 133.455 114.115 134.188 114.441 134.878C114.752 135.576 115.16 136.228 115.651 136.814C115.534 136.057 115.307 135.322 114.976 134.631C114.666 133.939 114.258 133.294 113.767 132.716V132.701ZM104.717 104.497C104.838 105.251 105.065 105.984 105.391 106.674C105.701 107.373 106.111 108.023 106.606 108.605C106.349 107.09 105.697 105.67 104.717 104.487V104.497Z" fill="white"/>
<path d="M120.304 94.7113C141.646 110.437 157.094 124.284 157.609 131.259C158.773 146.846 150.917 151.031 149.404 150.687C133.446 147.016 120.69 118.663 112.413 101.589C104.192 84.6168 114.194 90.2071 120.304 94.7113Z" fill="#916B5C"/>
<path d="M150.608 117.124L127.31 132.757C127.31 132.757 115.064 111.884 110.323 99.1433C105.582 86.4029 110.874 86.2742 123.377 95.3701C135.881 104.466 150.608 117.124 150.608 117.124Z" fill="#F7B801"/>
<path d="M119.403 108.332C118.691 108.055 117.942 107.882 117.18 107.817C118.433 108.699 119.895 109.24 121.421 109.387C120.803 108.941 120.123 108.585 119.403 108.332ZM112.248 97.6094C111.969 98.3215 111.795 99.0708 111.733 99.8332C112.616 98.5793 113.157 97.1176 113.303 95.5916C112.853 96.21 112.492 96.8894 112.233 97.6094H112.248ZM144.982 117.551C144.703 118.263 144.529 119.013 144.467 119.775C145.349 118.521 145.89 117.06 146.037 115.533C145.586 116.152 145.226 116.831 144.966 117.551H144.982ZM126.857 97.9492C126.759 98.1654 126.667 98.3816 126.584 98.5978C126.307 99.3106 126.134 100.059 126.07 100.822C126.517 100.196 126.873 99.5098 127.125 98.7831C127.187 98.6149 127.243 98.4433 127.295 98.2683L126.857 97.9492ZM133.765 111.384C133.067 111.693 132.417 112.1 131.835 112.594C133.348 112.336 134.768 111.686 135.953 110.71C135.19 110.827 134.448 111.054 133.75 111.384H133.765ZM127.13 122.709C126.822 122.009 126.414 121.357 125.92 120.774C126.181 122.287 126.83 123.706 127.804 124.892C127.683 124.142 127.454 123.414 127.125 122.73L127.13 122.709Z" fill="white"/>
<path d="M145.203 113.84C136.339 121.129 127.552 126.153 125.817 127.383C125.735 127.44 125.647 127.301 125.735 127.244C127.506 126.127 136.993 118.91 145.116 113.691C145.208 113.629 145.291 113.768 145.203 113.84Z" fill="#263238"/>
<path d="M128.803 131.728C128.317 131.955 127.844 132.211 127.388 132.495C124.695 128.022 125.2 129.056 122.466 124.604C121.128 122.424 119.79 120.244 118.451 118.061C117.061 115.791 115.79 113.428 114.277 111.225C114.235 111.158 114.148 111.225 114.179 111.287C115.121 113.464 116.336 115.549 117.494 117.634C117.247 117.315 117.015 116.985 116.747 116.681C116.155 116.002 115.574 115.317 115.038 114.591C114.956 114.478 114.771 114.591 114.853 114.705C115.368 115.394 115.826 116.115 116.279 116.846C116.732 117.577 117.236 118.272 117.746 118.967C118.256 119.662 118.776 120.274 119.29 120.913L119.486 121.15C120.227 122.447 120.948 123.759 121.715 125.046C124.412 129.545 127.099 133.041 127.182 133.015C127.774 132.673 128.338 132.286 128.87 131.857C128.942 131.774 128.87 131.692 128.803 131.728Z" fill="#263238"/>
<path d="M146.954 149.174C144.179 142.688 141.775 133.803 151.715 107.679C153.09 104.075 181.216 106.901 179.95 110.839C178.349 115.796 171.065 134.693 170.355 136.006C164.394 147.094 148.833 153.575 146.954 149.174Z" fill="#916B5C"/>
<path d="M145.183 143.872C144.987 141.756 144.946 139.645 144.956 137.535C144.956 136.505 144.998 135.429 145.044 134.379C145.09 133.329 145.229 132.32 145.373 131.255C145.682 129.196 146.063 127.095 146.48 125.021C146.897 122.946 147.34 120.877 147.885 118.844C147.098 120.821 146.443 122.849 145.924 124.913C145.409 126.972 144.951 129.031 144.627 131.167C144.448 132.226 144.336 133.296 144.292 134.369C144.246 135.435 144.261 136.505 144.292 137.571C144.371 139.696 144.669 141.808 145.183 143.872Z" fill="#263238"/>
<path d="M157.692 96.9506C153.537 100.502 150.428 110.901 150.428 110.901L177.345 118.107C177.345 118.107 181.036 110.077 184.711 107.153C185.782 106.304 191.187 101.63 196.726 97.4293C203.006 92.6678 208.988 86.8664 209.158 85.9295C209.482 84.1279 206.784 82.6968 201.796 84.9C196.808 87.1032 187.831 93.1208 187.198 93.3112C186.979 93.3575 186.757 93.3885 186.534 93.4039C186.245 93.3473 180.49 88.1636 177.062 88.8946C173.634 89.6255 158.196 96.0858 157.692 96.9506Z" fill="#916B5C"/>
<path d="M179.831 100.951C179.831 100.951 192.85 98.2893 194.76 96.2817C196.669 94.2741 209.93 83.984 210.29 82.1875C210.65 80.391 207.917 78.9548 202.929 81.158C197.941 83.3612 188.968 89.3582 188.33 89.5744C187.692 89.7906 176.002 90.2436 174.946 90.6039C173.891 90.9642 179.831 100.951 179.831 100.951Z" fill="#916B5C"/>
<path d="M187.352 100.487C188.68 99.8899 189.983 99.2361 191.285 98.5875C191.934 98.2529 192.577 97.9132 193.215 97.558C193.534 97.3778 193.854 97.2028 194.168 97.0072C194.327 96.9197 194.482 96.8116 194.641 96.7086C194.8 96.5987 194.951 96.4783 195.094 96.3483C197.313 94.49 199.537 92.606 201.745 90.7168C203.953 88.8276 206.141 86.9333 208.303 84.9566C208.851 84.4414 209.334 83.8605 209.739 83.227C209.945 82.9071 210.106 82.5607 210.218 82.1975C210.349 81.8084 210.349 81.3871 210.218 80.9981C210.136 80.8107 210.018 80.6415 209.871 80.5001C209.723 80.3587 209.549 80.248 209.358 80.1745C209.005 80.0367 208.631 79.9601 208.252 79.948C207.517 79.9213 206.782 79.9993 206.069 80.1796C206.786 80.0836 207.512 80.075 208.231 80.1539C208.578 80.1928 208.915 80.2903 209.23 80.4421C209.376 80.5083 209.507 80.6036 209.615 80.7223C209.723 80.8409 209.805 80.9803 209.858 81.1319C210.043 81.729 209.719 82.4188 209.343 82.9799C208.929 83.5484 208.451 84.0667 207.917 84.5242C205.693 86.3619 203.459 88.2459 201.256 90.1351C199.053 92.0243 196.855 93.9341 194.713 95.921C194.178 96.3851 193.599 96.7955 192.984 97.1462C192.371 97.5323 191.743 97.8977 191.12 98.2684L187.352 100.487Z" fill="#263238"/>
<path d="M177.268 99.3906C177.268 99.3906 191.522 96.4153 193.426 94.4128C195.331 92.4104 208.591 82.11 208.957 80.3186C209.322 78.5273 206.579 77.0808 201.596 79.2891C196.613 81.4974 187.63 87.4841 186.992 87.7055C186.354 87.9268 175.116 89.5329 174.051 89.8984C172.985 90.2638 177.268 99.3906 177.268 99.3906Z" fill="#916B5C"/>
<path d="M184.732 99.8386C186.323 99.0304 187.882 98.1605 189.447 97.2648C190.219 96.817 190.991 96.364 191.748 95.8904C192.129 95.6587 192.51 95.4168 192.886 95.1594C193.263 94.9023 193.622 94.6203 193.962 94.3152C196.666 91.9988 199.36 89.6635 202.043 87.3093L206.043 83.7523L207.037 82.8514C207.383 82.55 207.71 82.2267 208.015 81.8837C208.328 81.5276 208.594 81.1332 208.807 80.71C209.054 80.2577 209.148 79.7376 209.075 79.2275C209.022 78.9498 208.885 78.6949 208.684 78.4965C208.494 78.3167 208.267 78.1798 208.02 78.095C207.564 77.9486 207.087 77.8807 206.609 77.8943C205.7 77.9192 204.797 78.047 203.917 78.2752C202.171 78.7134 200.515 79.452 199.022 80.4578C200.572 79.5879 202.253 78.9743 204 78.6407C204.856 78.4603 205.729 78.3706 206.604 78.373C207.021 78.3757 207.433 78.4506 207.824 78.5944C207.993 78.6442 208.145 78.7391 208.264 78.8687C208.382 78.9984 208.464 79.1581 208.499 79.3305C208.528 79.7128 208.436 80.0948 208.236 80.4218C208.036 80.7924 207.792 81.138 207.51 81.4513C206.944 82.0639 206.223 82.6301 205.564 83.2221L201.534 86.7379C198.857 89.0955 196.18 91.4531 193.55 93.8674C193.238 94.1729 192.907 94.4567 192.556 94.7167C192.206 94.9741 191.841 95.2315 191.475 95.4786C190.739 95.9933 189.993 96.4618 189.241 96.9405L184.732 99.8386Z" fill="#263238"/>
<path d="M177.464 99.8129C177.464 99.8129 189.236 94.3358 191.007 92.4673C192.778 90.5987 202.275 84.1384 202.615 82.4706C202.955 80.8027 200.401 79.4592 195.758 81.5131C191.115 83.567 185.612 86.0224 185.02 86.2283C184.428 86.4342 175.044 89.5588 174.051 89.8986C173.057 90.2383 177.464 99.8129 177.464 99.8129Z" fill="#916B5C"/>
<path d="M181.051 99.324C183.069 98.2275 185.072 97.095 187.074 95.9729C188.103 95.4118 189.071 94.8404 190.065 94.2587L190.811 93.8212C191.065 93.6652 191.31 93.4933 191.542 93.3064C192.011 92.9563 192.453 92.596 192.901 92.2254C194.667 90.748 196.401 89.2346 198.08 87.6594C198.919 86.877 199.753 86.0791 200.571 85.2658C200.978 84.8591 201.384 84.4473 201.781 84.0201C202.2 83.5932 202.582 83.1317 202.923 82.6405C203.029 82.4807 203.102 82.3016 203.139 82.1134C203.175 81.9252 203.173 81.7317 203.135 81.544C203.027 81.1754 202.782 80.8621 202.45 80.669C201.899 80.3567 201.285 80.1704 200.653 80.1233C199.446 79.9914 198.225 80.1575 197.096 80.6072C194.955 81.4823 192.855 82.3986 190.744 83.3097C188.634 84.2208 186.508 85.1577 184.459 86.0894C183.404 86.5064 182.318 86.8976 181.242 87.2888C180.166 87.68 179.09 88.1073 178.024 88.55C180.269 88.0043 182.472 87.3866 184.685 86.702L191.027 83.9686C193.138 83.0729 195.259 82.1669 197.38 81.3227C198.393 80.9171 199.489 80.76 200.576 80.8646C201.093 80.9001 201.597 81.0458 202.054 81.2918C202.145 81.3286 202.226 81.3863 202.291 81.4602C202.355 81.5341 202.402 81.6221 202.426 81.7172C202.451 81.8124 202.453 81.9119 202.432 82.0079C202.411 82.1039 202.368 82.1936 202.306 82.2699C201.994 82.7179 201.65 83.1428 201.276 83.5413C200.895 83.9583 200.494 84.3701 200.092 84.7768C199.294 85.5901 198.471 86.388 197.637 87.1756C195.969 88.7456 194.306 90.3259 192.577 91.8084C192.144 92.1842 191.712 92.5548 191.264 92.91C190.815 93.2523 190.346 93.5669 189.859 93.852L186.925 95.6589L181.051 99.324Z" fill="#263238"/>
<path d="M62.1104 153.276C65.199 146.95 68.0868 138.204 59.5366 111.58C58.3526 107.9 30.1179 109.254 31.1783 113.248C32.5115 118.288 38.7865 137.54 39.4145 138.889C44.7989 150.26 59.9999 157.569 62.1104 153.276Z" fill="#916B5C"/>
<path d="M64.1538 148.077C64.7719 146.035 65.1739 143.934 65.3532 141.807C65.4458 140.747 65.523 139.681 65.5333 138.611C65.5432 137.538 65.4882 136.465 65.3686 135.399C65.1528 133.278 64.8281 131.17 64.3957 129.082C63.9894 126.989 63.4443 124.926 62.7639 122.905C63.1963 124.964 63.5258 127.075 63.8398 129.165C64.1538 131.255 64.4163 133.355 64.6119 135.455C64.7046 136.485 64.7869 137.55 64.7818 138.59C64.7766 139.63 64.7509 140.695 64.6994 141.746C64.6171 143.866 64.4575 145.972 64.1538 148.077Z" fill="#263238"/>
<path d="M55.65 100.147C59.0474 104.445 60.2057 113.711 60.2057 113.711L32.3004 117.139C32.3004 117.139 30.2104 108.553 27.1527 104.98C26.2673 103.951 21.8507 98.3246 17.223 93.1409C11.9672 87.2623 7.20566 80.4263 7.22111 79.474C7.24684 77.6466 10.1656 76.756 14.6388 79.8755C19.1121 82.995 26.7821 90.5929 27.3586 90.9275C27.566 91.0146 27.7793 91.0869 27.9969 91.1437C28.2955 91.1437 34.9359 87.1543 38.1584 88.5287C41.3808 89.9031 55.3257 99.2048 55.65 100.147Z" fill="#916B5C"/>
<path d="M33.1549 99.8383C33.1549 99.8383 20.8881 94.737 19.4056 92.4C17.9231 90.063 6.87109 77.4307 6.85565 75.6187C6.84021 73.8068 9.80524 72.8956 14.2785 76.0151C18.7518 79.1346 26.4166 86.7325 26.9983 87.0722C27.58 87.4119 38.9717 90.0836 39.9446 90.6498C40.9175 91.216 33.1549 99.8383 33.1549 99.8383Z" fill="#916B5C"/>
<path d="M25.8402 97.9443C24.6511 97.1001 23.5032 96.2096 22.345 95.3242C21.7736 94.8763 21.2074 94.4131 20.6463 93.9446C20.3683 93.7078 20.0903 93.471 19.8175 93.2239C19.6785 93.1056 19.5447 92.9666 19.4108 92.8379C19.2776 92.6991 19.1522 92.553 19.035 92.4003C17.2128 90.1508 15.3905 87.8756 13.5837 85.6003C11.7769 83.3251 9.98037 81.0395 8.24562 78.687C7.81561 78.0758 7.45965 77.4158 7.18521 76.7206C7.04365 76.3628 6.95352 75.9867 6.91753 75.6036C6.8656 75.1954 6.94876 74.7813 7.15432 74.4248C7.27355 74.2536 7.42625 74.1083 7.6032 73.9977C7.78015 73.8871 7.97767 73.8135 8.18385 73.7814C8.55688 73.7171 8.93815 73.7171 9.31118 73.7814C10.036 73.8977 10.7411 74.1142 11.4063 74.4248C10.7208 74.196 10.0106 74.0491 9.29059 73.9873C8.94464 73.9584 8.5963 73.9897 8.26106 74.0799C8.10473 74.1153 7.95754 74.1831 7.82899 74.2788C7.70043 74.3746 7.59336 74.4962 7.51466 74.6359C7.21609 75.1867 7.40141 75.9279 7.67423 76.5508C7.95391 77.1859 8.30816 77.7855 8.7295 78.337C10.5569 80.5659 12.3895 82.8463 14.1911 85.1216C15.9928 87.3968 17.7945 89.6875 19.5086 92.0503C19.9418 92.6121 20.4298 93.1294 20.9654 93.5946C21.4802 94.1093 22.0413 94.5675 22.5818 95.0514L25.8402 97.9443Z" fill="#263238"/>
<path d="M35.9705 98.7833C35.9705 98.7833 22.5455 93.1209 21.0424 90.8045C19.5393 88.4881 8.50793 75.83 8.49249 74.0026C8.47705 72.1752 11.4421 71.2795 15.9154 74.399C20.3887 77.5185 28.0535 85.1164 28.6352 85.451C29.2168 85.7856 39.96 89.5176 40.9226 90.0838C41.8852 90.6501 35.9705 98.7833 35.9705 98.7833Z" fill="#916B5C"/>
<path d="M28.5581 97.8101C27.1476 96.7086 25.7835 95.5606 24.44 94.4076C23.7656 93.8207 23.0964 93.2288 22.4427 92.6213C22.1132 92.3125 21.7838 92.0036 21.4646 91.6845C21.144 91.3611 20.8448 91.0172 20.569 90.6549C18.3623 87.8615 16.166 85.0526 13.98 82.2283L10.7318 77.9763L9.92881 76.9005C9.64623 76.539 9.38827 76.1589 9.15666 75.7628C8.91619 75.3544 8.72933 74.9167 8.60072 74.4605C8.43892 73.9708 8.43892 73.442 8.60072 72.9522C8.70524 72.6918 8.88431 72.4679 9.11548 72.3088C9.33778 72.1695 9.58678 72.0783 9.84644 72.0411C10.319 71.9843 10.7977 72.0086 11.262 72.1132C12.1506 72.3128 13.0139 72.6115 13.8359 73.0037C15.4658 73.7712 16.9498 74.8163 18.2216 76.0923C16.8678 74.9418 15.3362 74.0187 13.6866 73.3589C12.8804 73.0166 12.04 72.7612 11.1797 72.5971C10.7693 72.5253 10.3495 72.5253 9.9391 72.5971C9.76354 72.614 9.59595 72.6785 9.45442 72.7838C9.31289 72.889 9.20281 73.0309 9.13607 73.1942C9.03649 73.5625 9.05266 73.9525 9.1824 74.3112C9.31153 74.7082 9.48416 75.0898 9.69717 75.4488C10.1347 76.1592 10.7267 76.8541 11.2723 77.5594L14.5514 81.7856C16.7288 84.6116 18.9063 87.448 21.0271 90.31C21.2722 90.6716 21.5422 91.0156 21.8353 91.3396C22.1338 91.6639 22.4427 91.983 22.7567 92.297C23.3796 92.925 24.023 93.5428 24.6665 94.1605L28.5581 97.8101Z" fill="#263238"/>
<path d="M35.6978 99.1744C35.6978 99.1744 25.1863 91.5456 23.8068 89.3939C22.4272 87.2422 14.3403 79.0471 14.33 77.3433C14.3197 75.6394 17.0737 74.8055 21.2381 77.7139C25.4025 80.6223 30.3494 84.0815 30.8642 84.3955C31.3789 84.7095 40.027 89.5432 40.9329 90.094C41.8389 90.6448 35.6978 99.1744 35.6978 99.1744Z" fill="#916B5C"/>
<path d="M32.2694 98.0114C30.4934 96.5443 28.7484 95.0515 26.9982 93.5638C26.1231 92.8226 25.2531 92.0727 24.3883 91.3143L23.7397 90.7378C23.5283 90.5424 23.3289 90.3344 23.1426 90.1149C22.7514 89.6825 22.3859 89.2398 22.0204 88.792C20.5688 87.0058 19.1532 85.1886 17.8097 83.3201C17.1353 82.3883 16.4661 81.4463 15.8227 80.494C15.4984 80.0153 15.1792 79.5314 14.8704 79.0372C14.5406 78.5378 14.2547 78.0108 14.0159 77.462C13.9418 77.2852 13.9037 77.0953 13.9037 76.9035C13.9037 76.7118 13.9418 76.5219 14.0159 76.345C14.1866 76.0098 14.4768 75.7508 14.8292 75.6192C15.4304 75.4188 16.0681 75.3521 16.6978 75.4236C17.9075 75.5282 19.0735 75.9257 20.0952 76.5818C22.0307 77.8481 23.9148 79.1556 25.8142 80.4528C27.7137 81.75 29.6183 83.073 31.4766 84.3805C32.4341 84.993 33.4276 85.5799 34.4056 86.177C35.3837 86.7741 36.3617 87.3867 37.3192 88.025C35.2241 87.0624 33.2011 86.038 31.142 84.9364L25.4385 81.0396C23.5338 79.7579 21.6292 78.4658 19.7091 77.2253C18.7889 76.6423 17.7419 76.2893 16.6566 76.1957C16.1386 76.1261 15.6116 76.17 15.1123 76.3244C15.0162 76.3435 14.9258 76.3847 14.8485 76.445C14.7711 76.5052 14.7089 76.5827 14.6669 76.6712C14.6249 76.7598 14.6042 76.8569 14.6064 76.9549C14.6087 77.0529 14.6339 77.149 14.6799 77.2356C14.9026 77.739 15.1642 78.2244 15.4623 78.6872C15.7609 79.1711 16.0698 79.6498 16.3889 80.1234C17.0169 81.0757 17.6758 82.0177 18.3399 82.9494C19.6731 84.8129 21.0063 86.6815 22.4168 88.4883C22.7668 88.9361 23.122 89.384 23.4927 89.8164C23.8668 90.2312 24.2656 90.6232 24.6869 90.99L27.2195 93.327L32.2694 98.0114Z" fill="#263238"/>
<path d="M113.149 92.9404C111.182 96.5791 108.305 99.6456 104.8 101.841C103.124 102.948 101.199 103.62 99.1989 103.797C98.1587 103.904 97.111 103.682 96.203 103.164C95.3605 102.552 94.6902 101.732 94.2572 100.785C93.7402 99.7101 93.3813 98.5658 93.1916 97.3879C92.9649 96.0535 92.8307 94.7051 92.7901 93.3522C92.7901 93.3007 92.7129 93.311 92.7129 93.3522C92.7541 94.6339 92.6872 95.926 92.821 97.1923C92.9155 98.3181 93.1542 99.427 93.5314 100.492C93.8933 101.5 94.4653 102.419 95.2095 103.189C95.992 103.946 97.0208 104.395 98.1076 104.456C100.239 104.559 102.353 104.033 104.187 102.942C106.043 101.91 107.728 100.595 109.18 99.0454C110.857 97.2569 112.234 95.2092 113.257 92.9815C113.264 92.974 113.268 92.9651 113.271 92.9554C113.273 92.9457 113.273 92.9356 113.271 92.9259C113.268 92.9162 113.264 92.9072 113.257 92.8997C113.25 92.8923 113.242 92.8865 113.233 92.883C113.223 92.8794 113.213 92.8782 113.203 92.8793C113.194 92.8805 113.184 92.8841 113.176 92.8897C113.168 92.8954 113.161 92.9029 113.156 92.9117C113.152 92.9206 113.149 92.9304 113.149 92.9404Z" fill="#263238"/>
<path d="M97.4384 100.955C101.402 102.062 108.516 96.2248 111.43 91.3757C111.625 91.0411 111.249 87.4429 110.997 83.0417C110.858 80.3701 110.76 77.3793 110.869 74.6717C110.894 74.1157 93.6292 78.136 93.6292 78.136C93.6292 78.136 95.0808 83.9065 94.8594 88.6526C94.8412 89.0278 94.786 89.4002 94.6947 89.7645C94.6947 89.816 94.6947 89.8778 94.6638 89.9498C94.2314 92.0604 93.6086 99.8848 97.4384 100.955Z" fill="#916B5C"/>
<path d="M96.414 90.1095C95.8289 90.1048 95.2452 90.0514 94.669 89.95C94.6751 89.8876 94.6854 89.8256 94.6999 89.7646C94.7893 89.4001 94.8428 89.0277 94.8594 88.6528C95.0756 83.9118 93.6292 78.1361 93.6292 78.1361C93.6292 78.1361 107.646 74.8726 110.405 74.6306C109.752 77.7552 106.493 90.2948 96.414 90.1095Z" fill="#263238"/>
<path d="M114.77 55.4298C115.918 61.6584 110.755 78.6816 106.019 82.0739C99.1679 86.9847 88.9447 86.3619 85.0222 78.3573C81.2181 70.5947 88.3373 48.5268 93.5261 45.5463C101.16 41.1605 113.056 46.2258 114.77 55.4298Z" fill="#916B5C"/>
<path d="M99.0651 63.2129C99.0651 63.1717 99.1372 63.3004 99.1217 63.3415C98.7048 64.4689 98.4268 65.8279 99.3276 66.5485C99.3585 66.5485 99.3276 66.6257 99.2967 66.6052C98.1025 66.0132 98.4937 64.2166 99.0651 63.2129Z" fill="#263238"/>
<path d="M100.476 62.3638C102.349 62.8271 101.279 66.5488 99.544 66.1164C97.8092 65.684 98.9005 61.9726 100.476 62.3638Z" fill="#263238"/>
<path d="M92.121 60.9637C92.121 60.9174 92.018 60.9946 92.0026 61.041C91.7091 62.2043 91.1738 63.4861 90.0259 63.5684C89.9898 63.5684 89.9744 63.6302 90.0259 63.6354C91.3128 63.8207 92.0026 62.1117 92.121 60.9637Z" fill="#263238"/>
<path d="M91.4156 59.4656C89.6036 58.7912 88.3888 62.4666 90.0669 63.0689C91.745 63.6712 92.9341 60.0318 91.4156 59.4656Z" fill="#263238"/>
<path d="M102.128 62.6725C101.63 62.4932 101.142 62.287 100.666 62.0548C100.12 61.9087 99.6368 61.5866 99.2918 61.1385C99.2112 60.9769 99.1867 60.7931 99.2221 60.616C99.2575 60.4389 99.3509 60.2786 99.4874 60.1605C100.095 59.6817 100.857 59.8104 101.546 60.0781C102.244 60.3226 102.826 60.818 103.178 61.468C103.252 61.6212 103.279 61.7927 103.256 61.9612C103.233 62.1296 103.161 62.2877 103.05 62.4158C102.938 62.5439 102.791 62.6365 102.627 62.6822C102.464 62.7278 102.29 62.7244 102.128 62.6725Z" fill="#263238"/>
<path d="M91.2511 55.4967C91.7799 55.5455 92.3108 55.5661 92.8418 55.5584C93.3981 55.6574 93.9715 55.5706 94.4736 55.3113C94.6152 55.1983 94.7152 55.0414 94.7581 54.8653C94.8009 54.6892 94.7842 54.5039 94.7104 54.3384C94.3603 53.6487 93.6191 53.4427 92.8881 53.3964C92.1552 53.3229 91.4212 53.5247 90.829 53.9627C90.6986 54.0693 90.6019 54.2115 90.5507 54.3721C90.4996 54.5326 90.4961 54.7046 90.5408 54.867C90.5855 55.0295 90.6764 55.1755 90.8025 55.2873C90.9286 55.399 91.0845 55.4718 91.2511 55.4967Z" fill="#263238"/>
<path d="M94.453 74.9911C94.1229 75.2489 93.7134 75.3836 93.2948 75.3721C92.8764 75.2341 92.491 75.0116 92.1623 74.7183C92.1314 74.6926 92.0799 74.7183 92.0954 74.7595C92.1939 75.0275 92.3623 75.2643 92.5831 75.4453C92.804 75.6264 93.0692 75.745 93.3514 75.789C93.6014 75.7974 93.8484 75.732 94.0617 75.6012C94.2749 75.4703 94.445 75.2796 94.5508 75.0529C94.5868 75.0169 94.5044 74.9654 94.453 74.9911Z" fill="#263238"/>
<path d="M95.3898 72.9935C94.0771 71.964 92.121 71.5985 90.8701 71.3926C90.7415 71.336 90.6951 71.0323 90.7106 70.8778C90.7106 70.8315 91.5136 68.4276 91.5136 68.4276C91.1378 68.4945 89.2641 68.7519 89.4288 68.2989C90.7878 64.5205 92.3012 60.32 94.4529 56.8505C94.4685 56.83 94.4906 56.8155 94.5157 56.8093C94.5407 56.803 94.567 56.8055 94.5904 56.8163C94.6138 56.8271 94.6328 56.8456 94.6443 56.8687C94.6558 56.8917 94.6591 56.918 94.6536 56.9432C93.4903 60.6237 91.6886 64.0778 90.4583 67.7532C91.1293 67.6581 91.8104 67.6581 92.4813 67.7532C92.5946 67.8253 91.4982 70.3013 91.4209 70.708C91.4209 70.708 93.9948 70.708 95.539 72.489C95.9611 72.9523 96.0126 73.4774 95.3898 72.9935Z" fill="#263238"/>
<path d="M110.23 69.0863C110.23 69.0863 114.904 64.0056 117.262 65.7455C119.62 67.4854 115.579 75.2223 112.439 75.9327C112.043 76.0479 111.627 76.0826 111.218 76.0348C110.808 75.9869 110.412 75.8574 110.053 75.654C109.694 75.4505 109.379 75.1772 109.128 74.8502C108.876 74.5232 108.693 74.1492 108.588 73.7501L110.23 69.0863Z" fill="#916B5C"/>
<path d="M116.047 67.9334C116.058 67.9334 116.069 67.9377 116.076 67.9454C116.084 67.9532 116.088 67.9636 116.088 67.9745C116.088 67.9855 116.084 67.996 116.076 68.0037C116.069 68.0114 116.058 68.0157 116.047 68.0157C113.839 68.582 112.475 70.3785 111.414 72.2883C112.145 71.5985 113.051 71.2845 113.988 72.1699C114.04 72.2162 113.988 72.2934 113.916 72.2728C113.563 72.1069 113.168 72.0539 112.783 72.1211C112.399 72.1884 112.045 72.3726 111.769 72.6486C111.314 73.1186 110.91 73.6363 110.565 74.1929C110.441 74.3679 110.117 74.2238 110.215 74.0179C110.221 74.0014 110.23 73.9858 110.241 73.9715C110.565 71.2793 113.144 67.8201 116.047 67.9334Z" fill="#263238"/>
<path d="M115.8 215.361C115.764 215.572 115.723 215.783 115.682 216C115.718 215.789 115.759 215.572 115.795 215.361H115.8Z" fill="#EBEBEB"/>
<path d="M131.542 38.2165C131.543 38.9599 131.323 39.687 130.911 40.3056C130.498 40.9242 129.912 41.4067 129.225 41.6919C128.539 41.9771 127.783 42.0522 127.054 41.9078C126.325 41.7634 125.655 41.4059 125.128 40.8806C124.602 40.3553 124.244 39.6857 124.099 38.9566C123.953 38.2276 124.027 37.4717 124.312 36.7848C124.596 36.0978 125.077 35.5107 125.696 35.0975C126.314 34.6844 127.04 34.4639 127.784 34.4639C128.78 34.4639 129.735 34.8591 130.439 35.5627C131.144 36.2663 131.54 37.2208 131.542 38.2165Z" fill="white"/>
<path d="M131.542 38.2167C131.542 38.991 131.312 39.7478 130.879 40.3901C130.447 41.0324 129.832 41.5309 129.115 41.8217C128.397 42.1125 127.609 42.1823 126.851 42.0222C126.094 41.8621 125.401 41.4793 124.863 40.9231C124.324 40.3668 123.964 39.6623 123.829 38.9C123.693 38.1377 123.788 37.3522 124.102 36.6444C124.416 35.9366 124.934 35.3386 125.59 34.9272C126.246 34.5158 127.01 34.3097 127.784 34.3354C128.79 34.3713 129.744 34.7955 130.444 35.5192C131.145 36.2428 131.538 37.2095 131.542 38.2167ZM131.542 38.2167C131.541 37.381 131.253 36.5711 130.724 35.9236C130.196 35.2762 129.46 34.8309 128.641 34.6631C127.823 34.4952 126.971 34.615 126.231 35.0023C125.49 35.3895 124.906 36.0205 124.577 36.7886C124.248 37.5567 124.194 38.4149 124.424 39.2182C124.654 40.0216 125.155 40.7208 125.841 41.1978C126.527 41.6749 127.357 41.9005 128.19 41.8366C129.023 41.7727 129.809 41.4232 130.414 40.8471C130.77 40.5073 131.053 40.099 131.247 39.647C131.44 39.195 131.541 38.7085 131.542 38.2167Z" fill="#263238"/>
<path d="M159.946 18.0017C159.947 21.5359 158.9 24.9911 156.938 27.9304C154.976 30.8698 152.186 33.1614 148.921 34.5155C145.657 35.8696 142.064 36.2255 138.597 35.5381C135.131 34.8508 131.946 33.151 129.445 30.6538C126.944 28.1565 125.24 24.9738 124.547 21.5081C123.855 18.0424 124.206 14.4492 125.555 11.1828C126.904 7.91633 129.192 5.12329 132.129 3.15672C135.065 1.19016 138.519 0.138361 142.053 0.134289C144.401 0.131584 146.727 0.591705 148.898 1.48835C151.068 2.385 153.04 3.70059 154.702 5.35994C156.364 7.01928 157.682 8.98985 158.582 11.159C159.482 13.3281 159.945 15.6534 159.946 18.0017Z" fill="white"/>
<path d="M159.946 18.0019C159.952 22.7455 158.079 27.2984 154.737 30.665C152.649 32.7833 150.068 34.3516 147.227 35.23C144.385 36.1083 141.37 36.2694 138.45 35.6988C135.531 35.1282 132.798 33.8437 130.496 31.96C128.194 30.0762 126.395 27.6518 125.258 24.9031C124.121 22.1545 123.682 19.1671 123.981 16.2076C124.279 13.2481 125.306 10.4086 126.969 7.94253C128.633 5.47647 130.881 3.46057 133.513 2.07477C136.145 0.688963 139.079 -0.0236276 142.053 0.000597646C146.815 0.0325461 151.369 1.95237 154.716 5.33869C156.374 7.00391 157.687 8.97932 158.581 11.1521C159.474 13.3249 159.931 15.6524 159.926 18.0019H159.946ZM159.946 18.0019C159.946 15.6595 159.481 13.3405 158.58 11.1785C157.679 9.01652 156.358 7.05439 154.695 5.4053C153.031 3.75621 151.058 2.45279 148.888 1.57023C146.718 0.687662 144.395 0.243421 142.053 0.263128C139.148 0.289164 136.294 1.02824 133.742 2.41542C131.189 3.8026 129.017 5.79543 127.415 8.2188C125.812 10.6422 124.83 13.4219 124.554 16.3138C124.277 19.2056 124.716 22.1211 125.83 24.804C126.944 27.4869 128.7 29.8552 130.943 31.7006C133.187 33.5461 135.849 34.8123 138.697 35.388C141.544 35.9638 144.489 35.8313 147.274 35.0024C150.058 34.1735 152.596 32.6735 154.665 30.6341C158.019 27.295 159.912 22.7608 159.926 18.0276L159.946 18.0019Z" fill="#263238"/>
<path d="M122.847 44.4093C122.847 44.8226 122.725 45.2267 122.495 45.5704C122.265 45.9141 121.939 46.1819 121.557 46.3401C121.175 46.4983 120.755 46.5397 120.35 46.4591C119.944 46.3784 119.572 46.1794 119.279 45.8871C118.987 45.5948 118.788 45.2224 118.708 44.817C118.627 44.4116 118.668 43.9914 118.826 43.6095C118.985 43.2276 119.253 42.9012 119.596 42.6716C119.94 42.4419 120.344 42.3193 120.757 42.3193C121.312 42.3193 121.843 42.5395 122.235 42.9315C122.627 43.3234 122.847 43.855 122.847 44.4093Z" fill="white"/>
<path d="M122.847 44.4095C122.846 44.9756 122.629 45.5199 122.241 45.9319C121.853 46.3439 121.322 46.5929 120.757 46.6282C120.459 46.6427 120.161 46.5984 119.88 46.4977C119.599 46.397 119.341 46.2419 119.12 46.0413C118.848 45.7912 118.642 45.477 118.521 45.1271C118.4 44.7772 118.369 44.4028 118.43 44.0377C118.49 43.6727 118.641 43.3286 118.869 43.0365C119.096 42.7445 119.393 42.5138 119.732 42.3654C120.071 42.217 120.441 42.1555 120.81 42.1865C121.179 42.2176 121.534 42.3402 121.843 42.5432C122.153 42.7462 122.407 43.0232 122.582 43.3491C122.757 43.675 122.848 44.0395 122.847 44.4095ZM122.847 44.4095C122.848 44.1408 122.793 43.8748 122.687 43.628C122.58 43.3813 122.424 43.1591 122.228 42.9752C122.032 42.7913 121.8 42.6496 121.547 42.559C121.294 42.4683 121.025 42.4307 120.757 42.4483C120.374 42.4724 120.007 42.608 119.7 42.8384C119.393 43.0689 119.16 43.384 119.031 43.7451C118.901 44.1061 118.879 44.4973 118.969 44.8703C119.059 45.2434 119.255 45.5821 119.535 45.8447C119.815 46.1073 120.166 46.2822 120.544 46.3481C120.922 46.4139 121.311 46.3676 121.663 46.2151C122.015 46.0625 122.314 45.8103 122.525 45.4895C122.735 45.1686 122.847 44.7932 122.847 44.4095Z" fill="#263238"/>
<path d="M138.666 21.5689C138.654 20.7185 138.808 19.874 139.119 19.0826C139.511 18.2514 140.169 17.5741 140.988 17.1573C141.271 16.9875 141.616 16.7919 142.017 16.5757C142.444 16.3528 142.851 16.0927 143.232 15.7984C143.624 15.5038 143.963 15.1453 144.236 14.738C144.512 14.3239 144.656 13.8355 144.648 13.3378C144.652 12.9818 144.574 12.6297 144.421 12.3083C144.277 12.0136 144.072 11.7521 143.822 11.5404C143.571 11.3286 143.279 11.1712 142.964 11.078C142.64 10.9757 142.301 10.9237 141.961 10.9236C141.573 10.9191 141.188 10.9908 140.828 11.1346C140.501 11.2655 140.193 11.4386 139.912 11.6494C139.64 11.867 139.393 12.1138 139.176 12.3855C138.977 12.6337 138.793 12.8933 138.625 13.1628L136.164 11.4692C136.401 10.904 136.729 10.3821 137.137 9.92492C137.541 9.47528 138.009 9.08838 138.527 8.777C139.05 8.46402 139.615 8.2266 140.205 8.07177C140.815 7.91102 141.443 7.8297 142.074 7.82983C142.792 7.82994 143.506 7.93397 144.195 8.13869C144.88 8.34224 145.519 8.67993 146.073 9.13218C146.647 9.60704 147.111 10.2007 147.432 10.8721C147.998 12.1701 148.109 13.6213 147.746 14.9902C147.611 15.4389 147.404 15.863 147.134 16.2462C146.87 16.6289 146.557 16.9751 146.202 17.2757C145.818 17.5958 145.413 17.8883 144.987 18.1508C144.612 18.3773 144.231 18.5935 143.855 18.8046C143.491 19.0025 143.147 19.2334 142.825 19.4944C142.522 19.7402 142.262 20.0362 142.058 20.3695C141.854 20.7371 141.752 21.1534 141.765 21.574L138.666 21.5689ZM138.723 28.1578V24.2662H141.863V28.1681L138.723 28.1578Z" fill="#FFC727"/>
</svg>